<?xml version="1.0" encoding="utf-8"?>
<!-- Generator: Adobe Illustrator 26.2.1, SVG Export Plug-In . SVG Version: 6.00 Build 0)  -->
<svg version="1.1" id="Capa_1" xmlns:xodm="http://www.corel.com/coreldraw/odm/2003"
	 xmlns="http://www.w3.org/2000/svg" xmlns:xlink="http://www.w3.org/1999/xlink" x="0px" y="0px" viewBox="0 0 165.2 35.2"
	 style="enable-background:new 0 0 165.2 35.2;" xml:space="preserve">
<style type="text/css">
	.st0{fill-rule:evenodd;clip-rule:evenodd;}
</style>
<g>
	<path class="st0" d="M48.3,2.1h28.1l0.1,31.4H48.2C48.2,33.5,48.3,2.1,48.3,2.1z M46.3,35.1l31.7,0L78,0H46.7l0.4,0l-0.9,0.1V35.1z
		"/>
	<path class="st0" d="M62.1,7.1C55.9,7.4,50.9,9,51.3,15.9c1-0.3,1.3-0.8,2.6-0.8c1.4,0,1.9,0.8,2.7,0.8c1.4,0,2.1-1.5,5.5,0.1
		c0.3,3.8,0,8.2,0,12c0.1,5.7,5.3,3,3.8-1.2c-0.6,0.5-0.2-0.1-0.4,0.9c-0.2,1.4,0,2.4-1.9,2.3c-1.4-1.7-0.9-4-0.9-6.6
		c0-2.3-0.2-5.6,0.1-7.8c4.6-1.4,4,0.1,5.8,0.1c1.7,0,0.8-1.4,5.8-0.2c-0.4-2.9-2.2-5.1-3.7-6.4c-1.9-1.6-4.9-2.2-8-2.1
		c0-0.9,0.3-2.5-0.4-3C62,4.9,62.2,6,62.1,7.1L62.1,7.1z"/>
</g>
<g>
	<path class="st0" d="M91.8,2.1l28.1,0l-0.1,31.4l-27.1,0l-0.9,0C91.8,33.5,91.8,2.1,91.8,2.1z M90,35.2l30.7,0l0.9,0V0l-0.9,0H89.9
		C89.9,0,90,35.2,90,35.2z"/>
	<path class="st0" d="M106.7,18.7c5.3-1.9,6.5-7.8,3.5-14l-8.5,0.1c-2.6,3.9-3.6,12.1,3.7,14.1c-0.1,14.5,0.8,8.5-3.5,13l8.1,0
		c-1-0.8-2.2-1.9-3.4-2.4L106.7,18.7L106.7,18.7z"/>
</g>
<g>
	<path class="st0" d="M135.3,2.1h28l0.1,31.4h-28.1C135.4,33.5,135.3,2.1,135.3,2.1z M133.5,35.1l0.9,0l30.8,0l0-35.1h-31.7V35.1
		L133.5,35.1z"/>
	<polygon class="st0" points="142.3,31.1 142.3,32 156.6,32 156.6,17.9 155.8,17.8 142.3,17.8 	"/>
	<path class="st0" d="M155.9,16.1l-12.8,0c-0.1-1.6-0.1-1.3,2.7-2.9c4.5-2.6,3-2.9,7.2-0.1C155.6,14.8,156,14.5,155.9,16.1z
		 M150.3,10.6l5.7-3.4l0,7.1C155.3,14,150.7,11,150.3,10.6L150.3,10.6z M143.2,14.2l-0.1-0.8l0-5.7l0-1c1.6,0.7,4.4,2.8,6,3.8
		L143.2,14.2L143.2,14.2z M143.1,4.1l12.9,0l0,2.3c-0.9,0.6-5.8,3.8-6.5,3.7c-0.8-0.2-5.1-3.4-6.4-4.1L143.1,4.1L143.1,4.1z
		 M142.3,5.4c-0.8-0.3-1-0.9-1.6-0.6c0.3,0.6,0.7,0.6,1.2,1.1l0.4,8.8c-0.5,0.4-0.3,0.2-0.8,0.6l-0.8,0.6c0,0-0.1,0.1-0.1,0.1
		c0.7,0.4,1-0.3,1.8-0.4v1.6l14.3-0.1v-1.5c1.1,0.4,1.1,0.9,2.3,1.1c-0.3-1-1-0.9-2.2-1.9l-0.1-8.2c0.7-0.3,2.3-1.1,2.7-1.8
		c-0.6-0.3-1.9,0.8-2.6,1.1L156.6,3L142.3,3L142.3,5.4L142.3,5.4z"/>
</g>
<g>
	<path class="st0" d="M23.3,8.9c-0.5,0.4-3,4.8-3.3,5.7l1.8,0l0,13.9l2.8-0.1l0.1-13.8l2-0.1C26.1,13,24.1,10.4,23.3,8.9L23.3,8.9z"
		/>
	<g>
		<path class="st0" d="M4.6,2.1h28.1l-0.1,31.4h-28C4.6,33.5,4.6,2.1,4.6,2.1z M2.8,35.1l31.7,0L34.4,0H3.8L3.6,0L2.8,0.1
			C2.8,0.1,2.8,35.1,2.8,35.1z"/>
		<path class="st0" d="M10.3,14.6l1.8,0l0,13.9l2.8-0.2L15,14.6l1.9-0.1c-0.4-1-2.9-5-3.5-5.6L10.3,14.6L10.3,14.6z"/>
	</g>
</g>
<g>
	<path class="st0" d="M-39.4,2.1l28.1,0l0,31.4l-27.2,0l-0.8-0.1L-39.4,2.1L-39.4,2.1z M-41.2,35.2h31.7V0h0.9h-32.6L-41.2,35.2
		L-41.2,35.2z"/>
	<path class="st0" d="M-18.8,18.3c-1.1-0.2-1.3,0.5-2.2,1.3c-3,2.8-2.6,3.3-2.6,5.8c0,1.4,0,2.9,0,4.3l4.4,0
		c0.1-3.6-0.2-2.5,1.4-4.6c3.4-4.4,2.6-2.1,2.6-9c0-0.6,0-2.5-0.1-2.9c-0.2-0.8-1-1.1-1.6-0.4c-1.1,1.4,0.4,6.5-0.9,8
		c-4.3,5.1-3.7,1.8-3.1,1C-20.1,20.9-18.4,19.9-18.8,18.3z"/>
	<path class="st0" d="M-30.6,18.8c0.3,1-0.2,0.4,0.7,1.3c1.6,1.8,2.6,2.6,1.6,3.6c-0.9-0.1-3.5-2.9-3.6-3.7
		c-0.4-2.1,0.3-5.4-0.5-7.3c-2.2-0.4-1.6,1.6-1.7,3.8c0,6.9-0.5,4.6,1.5,7.4c2.6,3.6,2.4,1.6,2.4,5.9h4.4c0-5.9,0.8-6.6-1.5-8.8
		c-1.2-1.1-1.7-2.5-2.9-2.7C-30.7,18.7-30.1,18.1-30.6,18.8z"/>
	<path class="st0" d="M-29.5,15l4,2.5l0.1-4.6c-0.4-0.8-3.3-2.6-4.1-2.9C-29.4,10-29.5,15-29.5,15z"/>
	<path class="st0" d="M-24.3,13.1l0,4.5l4.1-2.3l-0.1-5.2l-3.1,2C-24,12.6-24,12.4-24.3,13.1L-24.3,13.1z"/>
	<path class="st0" d="M-28.4,8.9c0.3,0.3,3.2,2.4,3.6,2.4c0.4,0,3.5-1.8,4-2.2c-0.3-0.3-3.1-2.4-3.6-2.4C-25,6.6-27.9,8.5-28.4,8.9
		L-28.4,8.9z"/>
</g>
</svg>
