<?xml version="1.0" encoding="utf-8"?>
<!-- Generator: Adobe Illustrator 26.2.1, SVG Export Plug-In . SVG Version: 6.00 Build 0)  -->
<svg version="1.1" id="Capa_1" xmlns="http://www.w3.org/2000/svg" xmlns:xlink="http://www.w3.org/1999/xlink" x="0px" y="0px"
	 viewBox="0 0 700 130" style="enable-background:new 0 0 700 130;" xml:space="preserve">
<style type="text/css">
	.st0{fill:#FFFFFF;}
</style>
<path class="st0" d="M127.9,127.5H51.2v-0.1H21.7V51.1H1.3V25.9c0-5.4,3.8-9.9,8.6-9.9l110.2,0.1v30.2h0.1v56.9h-9.7v-77H91.6
	c-1.3,0-1.6,0.6-1.7,1.6v11.9h7.6v76c0,1.3,0.5,1.9,1.7,1.9h26.5c1.2,0,1.7-0.6,1.7-1.9v-7h9.1v9
	C136.5,123.1,132.6,127.5,127.9,127.5z M52.8,125.6h75c3.9,0,7.1-3.6,7.1-8.1v-7.1H129v5.1c0,2.5-1.2,3.8-3.3,3.8H99.2
	c-2.2,0-3.3-1.4-3.3-3.8V41.5h-7.6V27.7c0.1-1.6,0.7-3.4,3.3-3.4h20.5v77.1h6.3V48.3h-0.1V18.2L9.9,18.1c-3.8,0-7,3.5-7,8v23.1h20.4
	v76.4L52.8,125.6L52.8,125.6z M89.5,119.5h-27c-2.2,0-3.3-1.4-3.3-3.8V41.5h-7.3V27.1c0-1.5,1.1-2.8,2.4-2.8l20.6,0.2v76.2h14.6
	C89.5,100.7,89.5,119.5,89.5,119.5z M53.5,39.6h7.3v76c0,1.3,0.5,1.9,1.7,1.9h25.3v-15H73.2V26.4l-18.9-0.2c-0.4,0-0.7,0.4-0.7,0.9
	V39.6z M45,119.4H32.5c-2.2,0-3.3-1.4-3.3-3.8v-74H8.8V28c0-2.5,1.2-3.8,3.3-3.8h32.7L45,119.4z M30.8,115.5c0,1.3,0.5,1.9,1.7,1.9
	h10.9L43.2,26H12.1c-1.2,0-1.7,0.6-1.7,1.9v11.6h20.4L30.8,115.5z"/>
<path class="st0" d="M172.4,82.1h-11.6V28.2h-7.5c-0.5,0-0.8,0.2-0.8,1v4.8h-10.4V23c0-4.7,1.7-6.7,5.7-6.7h37.6
	c4.1,0,5.7,1.9,5.7,6.7v11h-10.4v-4.8c0-0.9-0.3-1-0.8-1h-7.5L172.4,82.1L172.4,82.1z M162.5,80.2h8.3V26.3h9.1
	c1.5,0,2.5,1.1,2.5,2.9v2.9h7.1v-9.1c0-3.8-0.8-4.8-4.1-4.8h-37.6c-3.2,0-4.1,1-4.1,4.8v9.1h7.1v-2.9c0-1.8,1-2.9,2.5-2.9h9.1
	L162.5,80.2L162.5,80.2z"/>
<path class="st0" d="M232.3,82.1h-24.4c-4.1,0-6-2.3-6-7V28.2h-5V16.3h33.4c4.1,0,6,2.3,6,7V34h-10.7v-4.8c0-0.9-0.3-1-0.8-1h-11.3
	V43h17.5v11.9h-17.5v14.2c0,0.9,0.3,1,0.8,1h12.5c0.5,0,0.8-0.2,0.8-1v-4.8h10.7v10.6C238.3,79.8,236.4,82.1,232.3,82.1z
	 M198.6,26.3h4.9v48.8c0,3.8,1.2,5.1,4.3,5.1h24.4c3.2,0,4.3-1.4,4.3-5.1v-8.7h-7.4v2.9c0,1.8-1,2.9-2.5,2.9h-12.5
	c-1.5,0-2.5-1.1-2.5-2.9V53.2h17.5v-8.3h-17.5V26.3h13c1.5,0,2.5,1.1,2.5,2.9v2.9h7.4v-8.7c0-3.7-1.2-5.1-4.3-5.1h-31.7V26.3z"/>
<path class="st0" d="M279.4,82.1h-23.8c-4.1,0-6-2.3-6-7V29.2c0-0.9-0.3-1-0.8-1h-4.1V16.3h10.6c4.1,0,6,2.3,6,7v45.8
	c0,0.9,0.3,1,0.8,1h11.8c0.5,0,0.8-0.2,0.8-1v-4.8h10.7V75C285.4,79.8,283.5,82.1,279.4,82.1z M246.3,26.3h2.4
	c1.5,0,2.5,1.1,2.5,2.9v45.8c0,3.8,1.2,5.1,4.3,5.1h23.8c3.2,0,4.3-1.3,4.3-5.1v-8.7h-7.4v2.9c0,1.8-1,2.9-2.5,2.9h-11.8
	c-1.5,0-2.5-1.1-2.5-2.9V23.4c0-3.8-1.2-5.1-4.3-5.1h-8.9L246.3,26.3L246.3,26.3z"/>
<path class="st0" d="M323.2,82.1h-23.8c-4.1,0-6-2.3-6-7V29.2c0-0.9-0.3-1-0.8-1h-4.1V16.3h10.6c4.1,0,6,2.3,6,7v45.8
	c0,0.9,0.3,1,0.8,1h11.8c0.5,0,0.8-0.2,0.8-1v-4.8h10.7V75C329.2,79.8,327.3,82.1,323.2,82.1z M290.2,26.3h2.4
	c1.5,0,2.5,1.1,2.5,2.9v45.8c0,3.8,1.2,5.1,4.3,5.1h23.8c3.2,0,4.3-1.3,4.3-5.1v-8.7h-7.4v2.9c0,1.8-1,2.9-2.5,2.9h-11.8
	c-1.5,0-2.5-1.1-2.5-2.9V23.4c0-3.8-1.2-5.1-4.3-5.1h-8.9L290.2,26.3L290.2,26.3z"/>
<path class="st0" d="M377.9,83.1c-12.2,0-18.9-9.9-19.2-10.2l-0.4-0.6l6.6-9.8l0.7,0.9c0.1,0.1,5.4,7.2,12.5,7.2
	c3.4,0,6.9-2.1,6.9-6.6c0-4-4.3-6.4-9.4-9.1c-7.1-3.9-16-8.7-16-20.7c0-11,7.9-19,18.9-19c6.5,0,16.9,3.7,16.9,13.6v6.9h-10.6v-3.8
	c0-2.4-3.2-4-6.3-4c-4.2,0-7.1,2.5-7.1,5.9c0,4,4.2,6.1,9.1,8.6c7.2,3.7,16.2,8.3,16.2,21.1C396.6,75.1,388.9,83.1,377.9,83.1z
	 M360.4,72.3c1.6,2,7.7,9,17.5,9c10.1,0,17.1-7.3,17.1-17.8c0-11.6-8.1-15.7-15.3-19.3c-5.4-2.8-10.1-5.1-10.1-10.3
	c0-4.6,3.7-7.8,8.7-7.8c3.9,0,8,2.2,8,5.9v1.9h7.3v-5c0-8.4-9.3-11.7-15.2-11.7c-10,0-17.2,7.2-17.2,17.1c0,10.8,8,15.2,15,19
	c5.6,3,10.3,5.6,10.3,10.8c0,5-3.5,8.5-8.6,8.5c-6.3,0-11.2-5-13-7L360.4,72.3z"/>
<path class="st0" d="M439.5,82.1h-24.4c-4.1,0-6-2.3-6-7V28.2h-4.9V16.3h33.4c4.1,0,6,2.3,6,7V34h-10.7v-4.8c0-0.9-0.3-1-0.8-1
	h-11.3V43h17.5v11.9h-17.5v14.2c0,0.9,0.3,1,0.8,1H434c0.5,0,0.8-0.2,0.8-1v-4.8h10.7v10.6C445.5,79.8,443.6,82.1,439.5,82.1z
	 M405.8,26.3h4.9v48.8c0,3.8,1.2,5.1,4.3,5.1h24.4c3.2,0,4.3-1.4,4.3-5.1v-8.7h-7.4v2.9c0,1.8-1,2.9-2.5,2.9h-12.5
	c-1.5,0-2.5-1.1-2.5-2.9V53.2h17.5v-8.3h-17.5V26.3h13c1.5,0,2.5,1.1,2.5,2.9v2.9h7.4v-8.7c0-3.7-1.2-5.1-4.3-5.1h-31.7L405.8,26.3
	L405.8,26.3z"/>
<path class="st0" d="M501.9,82.1h-10.1L471,46.4c-1-1.6-1.9-3.6-2.7-5.2c0.1,1.5,0.2,3.2,0.2,4.7v29.1c0,4.8-1.9,7-6,7h-10.6V70.2
	h4.1c0.5,0,0.8-0.2,0.8-1V16.3H467l20.7,35.8c1,1.7,1.9,3.6,2.7,5.3c-0.1-1.5-0.2-3.3-0.2-4.7V23.4c0-4.8,1.9-7,6-7h10.6v11.9h-4.1
	c-0.5,0-0.8,0.2-0.8,1V82.1z M492.6,80.2h7.6V29.2c0-1.8,1-2.9,2.5-2.9h2.4v-8.1h-8.9c-3.2,0-4.3,1.4-4.3,5.1v29.2
	c0,3.6,0.5,8.8,0.5,8.9l0.1,1H491l-0.2-0.5c0-0.1-2.3-5.3-4.4-8.9l-20.2-34.9h-7.6v50.9c0,1.8-1,2.9-2.5,2.9h-2.4v8.1h8.9
	c3.2,0,4.3-1.3,4.3-5.1V45.8c0-3.6-0.5-8.8-0.5-8.9l-0.1-1h1.6l0.2,0.6c0,0.1,2.3,5.4,4.4,8.9L492.6,80.2z M485.1,14.2
	c-3.2,0-5.2-2.1-6.7-3.7c-1.1-1.2-2-2.1-3-2.1c-1.7,0-2.2,2.5-2.2,4.6V14h-7.7V13c0-11,5.2-13.3,9.5-13.3c3.2,0,5.2,2.1,6.7,3.7
	c1.1,1.2,2,2.1,3,2.1c1.6,0,2.2-2.4,2.2-4.6v-0.9h7.6v0.9C494.5,11.9,489.4,14.2,485.1,14.2z M475.3,6.4c1.7,0,2.9,1.3,4.2,2.7
	c1.4,1.6,2.9,3.2,5.6,3.2c5.1,0,7.6-3.4,7.8-10.4h-4.3c-0.2,3.4-1.7,5.6-3.9,5.6c-1.7,0-2.9-1.3-4.2-2.7c-1.4-1.6-2.9-3.2-5.6-3.2
	c-5.1,0-7.6,3.4-7.8,10.4h4.3C471.6,8.6,473.1,6.4,475.3,6.4z"/>
<path class="st0" d="M563.6,82.1h-6.7c-4.2,0-5.8-1.3-7.1-5.9l-3.2-10.4h-17l-3.2,10.4c-1.3,4.5-3,5.9-7.1,5.9h-6.8V70.2h2.1
	c1,0,1.2-0.1,1.6-1.3l16.2-52.5h11.6L560,68.9c0.3,1.2,0.6,1.3,1.6,1.3h2.1L563.6,82.1L563.6,82.1z M528.3,63.9h19.4l3.6,11.8
	c1.1,3.7,2.2,4.6,5.6,4.6h5.1v-8.1h-0.4c-1.5,0-2.5-0.5-3.2-2.7l-15.8-51.2h-9.2l-15.9,51.3c-0.6,2.2-1.7,2.7-3.2,2.7h-0.4v8.1h5.2
	c3.4,0,4.4-0.9,5.5-4.6L528.3,63.9z M546,56h-16l5-17.3c1-3.4,2.1-9.4,2.1-9.5l0.2-0.8h1.5l0.2,0.8c0,0.1,1.2,6,2.1,9.5L546,56z
	 M532.3,54.1h11.4l-4.2-14.8c-0.5-1.7-1-4.1-1.4-6c-0.4,1.9-0.9,4.3-1.4,6L532.3,54.1z"/>
<path class="st0" d="M603.8,82.1h-23.8c-4.1,0-6-2.3-6-7V29.2c0-0.9-0.3-1-0.8-1h-4.1V16.3h10.6c4.1,0,6,2.3,6,7v45.8
	c0,0.9,0.3,1,0.8,1h11.8c0.5,0,0.8-0.2,0.8-1v-4.8h10.7V75C609.9,79.8,608,82.1,603.8,82.1z M570.8,26.3h2.4c1.5,0,2.5,1.1,2.5,2.9
	v45.8c0,3.8,1.2,5.1,4.3,5.1h23.8c3.2,0,4.3-1.3,4.3-5.1v-8.7h-7.3v2.9c0,1.8-1,2.9-2.5,2.9h-11.8c-1.5,0-2.5-1.1-2.5-2.9V23.4
	c0-3.8-1.2-5.1-4.3-5.1h-8.9V26.3L570.8,26.3z"/>
<path class="st0" d="M648.4,82.1h-24.4c-4.1,0-6-2.3-6-7V28.2h-4.9V16.3h33.4c4.1,0,6,2.3,6,7V34h-10.7v-4.8c0-0.9-0.3-1-0.8-1
	h-11.3V43H647v11.9h-17.5v14.2c0,0.9,0.3,1,0.8,1h12.5c0.5,0,0.8-0.2,0.8-1v-4.8h10.7v10.6C654.4,79.8,652.5,82.1,648.4,82.1z
	 M614.6,26.3h4.9v48.8c0,3.8,1.2,5.1,4.3,5.1h24.4c3.2,0,4.3-1.4,4.3-5.1v-8.7h-7.4v2.9c0,1.8-1,2.9-2.5,2.9h-12.5
	c-1.5,0-2.5-1.1-2.5-2.9V53.2h17.5v-8.3h-17.5V26.3h13c1.5,0,2.5,1.1,2.5,2.9v2.9h7.4v-8.7c0-3.7-1.2-5.1-4.3-5.1h-31.7L614.6,26.3
	L614.6,26.3z"/>
<path class="st0" d="M680,83.1c-12.2,0-18.9-9.9-19.2-10.2l-0.4-0.6l6.6-9.8l0.7,0.9c0.1,0.1,5.4,7.2,12.5,7.2
	c3.4,0,6.9-2.1,6.9-6.6c0-4-4.3-6.4-9.4-9.1c-7.1-3.9-16-8.7-16-20.7c0-11,7.9-19,18.9-19c6.5,0,16.9,3.7,16.9,13.6v6.9h-10.6v-3.8
	c0-2.4-3.2-4-6.3-4c-4.2,0-7.1,2.5-7.1,5.9c0,4,4.2,6.1,9.1,8.6c7.2,3.7,16.2,8.3,16.2,21.1C698.7,75.1,691,83.1,680,83.1z
	 M662.4,72.3c1.6,2,7.7,9,17.5,9c10.1,0,17.1-7.3,17.1-17.8c0-11.6-8.1-15.7-15.3-19.3c-5.4-2.8-10.1-5.1-10.1-10.3
	c0-4.6,3.7-7.8,8.7-7.8c3.9,0,8,2.2,8,5.9v1.9h7.3v-5c0-8.4-9.3-11.7-15.2-11.7c-10,0-17.2,7.2-17.2,17.1c0,10.8,8,15.2,15,19
	c5.6,3,10.3,5.6,10.3,10.8c0,5-3.5,8.5-8.6,8.5c-6.3,0-11.2-5-13-7L662.4,72.3z"/>
<path class="st0" d="M167.7,123.7h-3.7v-27h-6.8v-4.3h17.4v4.3h-6.8V123.7z M164.8,122.8h2.1v-27h6.8v-2.4H158v2.4h6.8V122.8z"/>
<path class="st0" d="M209.4,123.7H196V92.4h12.9v4.3h-9.1v8.6h8.6v4.2h-8.6v10h9.6V123.7z M196.9,122.8h11.7v-2.4h-9.6v-11.9h8.6
	v-2.3h-8.6V95.7h9.1v-2.4h-11.2V122.8z"/>
<path class="st0" d="M245.4,123.7h-13.2V92.4h3.7v27h9.6L245.4,123.7L245.4,123.7z M233,122.8h11.6v-2.4H235v-27h-2.1L233,122.8
	L233,122.8z"/>
<path class="st0" d="M280.9,123.7h-13.3V92.4h3.7v27h9.6V123.7z M268.4,122.8H280v-2.4h-9.6v-27h-2.1V122.8z"/>
<path class="st0" d="M308.1,124.2c-2.2,0-4.7-0.9-6-2.1l-0.2-0.2l0.9-4.3l0.5,0.4c1.4,1.1,3.2,1.9,4.9,1.9c2.7,0,4.2-1.8,4.2-4.7
	c0-2.6-1-4.1-4-5.6c-4.2-2-6.1-4.9-6.1-9c0-5.1,3.2-8.7,7.6-8.7c2.7,0,4.4,0.9,5.2,1.6l0.2,0.2l-1,4.2l-0.5-0.4
	c-0.8-0.7-2.2-1.3-4-1.3c-2.6,0-3.8,2.1-3.8,4.1c0,2.5,1,3.8,4.2,5.4c4.2,2.2,5.9,5,5.9,9.4C316.3,119.2,314.1,124.2,308.1,124.2z
	 M302.8,121.5c1.2,0.9,3.3,1.6,5.2,1.6c5.5,0,7.4-4.5,7.4-8.3c0-4-1.6-6.4-5.5-8.4c-3-1.6-4.7-3-4.7-6.3c0-2.5,1.4-5,4.7-5
	c1.7,0,3.1,0.6,4,1.2l0.6-2.3c-0.7-0.6-2.2-1.2-4.4-1.2c-4,0-6.8,3.2-6.8,7.8c0,3.7,1.8,6.4,5.7,8.2c3.2,1.7,4.5,3.5,4.5,6.4
	c0,3.4-2,5.7-5.1,5.7c-1.7,0-3.4-0.6-4.9-1.7L302.8,121.5z"/>
<path class="st0" d="M352.6,123.7h-13.4V92.4h12.9v4.3H343v8.6h8.6v4.2H343v10h9.6V123.7z M340.1,122.8h11.7v-2.4h-9.6v-11.9h8.6
	v-2.3h-8.6V95.7h9.1v-2.4h-11.2V122.8z"/>
<path class="st0" d="M392.9,123.7h-3.6l-7.2-15.7c-1.4-3-2.5-5.7-3.4-8c0.1,3,0.2,6.2,0.2,10.2v13.5h-3.6V92.5h3.8l7.2,15.7
	c1.2,2.6,2.2,5,3.2,7.5c-0.2-3.2-0.2-6.4-0.2-9.9V92.4h3.6V123.7z M389.8,122.8h2.2V93.4h-1.9v12.2c0,4.5,0.1,8.3,0.3,12.4v0.3
	l-0.7,0.5l-0.2-0.5c-1.1-3.1-2.4-6.4-4-9.8l-7.1-15.1H376v29.4h1.9v-12.5c0-5-0.1-8.7-0.2-12.5v-0.4l0.7-0.4l0.2,0.5
	c1,2.8,2.3,6.1,4.2,10.1L389.8,122.8z"/>
<path class="st0" d="M434.9,123.7H431l-2.4-9.6h-7.3l-2.3,9.6h-3.8l7.8-31.3h4.1L434.9,123.7z M431.6,122.8h2.2l-7.4-29.4h-2.8
	l-7.3,29.4h2.1l2.3-9.6h8.6L431.6,122.8z M428.8,111.1H421l2.3-9.4c0.3-1.6,0.7-3.3,1.1-5.5l0.1-0.4h0.7l0.2,0.4l0.1,0.3
	c0.3,1.6,0.7,3.3,1.1,5.2L428.8,111.1z M422.1,110.2h5.7l-2-8.2c-0.3-1.2-0.6-2.5-0.8-3.6c-0.2,1.3-0.5,2.5-0.7,3.5L422.1,110.2z"/>
<path class="st0" d="M470.3,123.7h-13.2V92.4h3.7v27h9.6L470.3,123.7L470.3,123.7z M457.8,122.8h11.6v-2.4h-9.6v-27h-2.1
	L457.8,122.8L457.8,122.8z"/>
<path class="st0" d="M505.8,123.7h-13.4V92.4h12.9v4.3h-9.1v8.6h8.6v4.2h-8.6v10h9.6V123.7z M493.3,122.8H505v-2.4h-9.6v-11.9h8.6
	v-2.3h-8.6V95.7h9.1v-2.4h-11.2V122.8z"/>
<path class="st0" d="M533.6,124.2c-2.2,0-4.7-0.9-6-2.1l-0.2-0.2l0.9-4.3l0.5,0.4c1.4,1.1,3.2,1.9,4.9,1.9c2.7,0,4.2-1.8,4.2-4.7
	c0-2.6-1-4.1-4-5.6c-4.2-2-6.1-4.9-6.1-9c0-5.1,3.2-8.7,7.6-8.7c2.7,0,4.4,0.9,5.2,1.6l0.2,0.2l-1,4.2l-0.5-0.4
	c-0.8-0.7-2.2-1.3-4-1.3c-2.6,0-3.8,2.1-3.8,4.1c0,2.5,1,3.8,4.2,5.4c4.2,2.2,5.9,5,5.9,9.4C541.8,119.2,539.7,124.2,533.6,124.2z
	 M528.4,121.5c1.2,0.9,3.3,1.6,5.2,1.6c5.5,0,7.4-4.5,7.4-8.3c0-4-1.6-6.4-5.5-8.4c-3-1.6-4.7-3-4.7-6.3c0-2.5,1.4-5,4.7-5
	c1.7,0,3.1,0.6,4,1.2l0.6-2.3c-0.7-0.6-2.2-1.2-4.4-1.2c-4,0-6.8,3.2-6.8,7.8c0,3.7,1.8,6.4,5.7,8.2c3.2,1.7,4.5,3.5,4.5,6.4
	c0,3.4-2,5.7-5.1,5.7c-1.7,0-3.4-0.6-4.9-1.7L528.4,121.5z"/>
<path class="st0" d="M566.4,124.2c-1.4,0-2.3-1.4-2.3-3.3s1-3.3,2.4-3.3c1.4,0,2.3,1.3,2.3,3.3C568.7,122.9,567.8,124.2,566.4,124.2
	z M566.4,118.5c-0.9,0-1.6,0.9-1.6,2.4s0.7,2.4,1.5,2.4c1.1,0,1.6-1.2,1.6-2.4C567.8,119.5,567.3,118.5,566.4,118.5z"/>
<path class="st0" d="M601.5,124.2c-7,0-11.5-6.3-11.5-15.8c0-9.9,4.8-16.4,12.1-16.4c3.2,0,5.1,1,5.5,1.4l0.2,0.2l-0.9,4.2l-0.5-0.3
	c-1.2-0.8-2.7-1.2-4.3-1.2c-5.1,0-8.3,4.6-8.3,12c0,7.3,3.1,11.8,8.1,11.8c1.7,0,3.4-0.5,4.5-1.2l0.5-0.3l0.7,4.1l-0.2,0.2
	C606.6,123.3,604.4,124.2,601.5,124.2z M602.2,92.9c-6.7,0-11.2,6.3-11.2,15.5c0,9,4.2,14.9,10.6,14.9c2.5,0,4.4-0.7,5.4-1.2
	l-0.4-2.2c-1.2,0.7-2.8,1-4.4,1c-5.6,0-9-4.8-9-12.7c0-8.1,3.5-13,9.1-13c1.5,0,3,0.4,4.2,1l0.5-2.3
	C606.3,93.6,604.7,92.9,602.2,92.9z"/>
<path class="st0" d="M638.9,124.2c-6.1,0-10.5-6.5-10.5-15.8c0-9.7,4.4-16.4,10.8-16.4c6.2,0,10.5,6.4,10.5,15.8
	C649.6,119.2,644.2,124.2,638.9,124.2z M639.2,92.9c-5.8,0-10,6.4-10,15.5c0,8.8,4,14.9,9.6,14.9c6.1,0,10-6.1,10-15.6
	C648.8,98.9,645,92.9,639.2,92.9z M639.1,121c-4.9,0-7.6-6.4-7.6-12.8c0-6.5,2.3-13.1,7.6-13.1c5.2,0,7.6,6.6,7.6,12.8
	C646.6,115.8,643.6,121,639.1,121z M639.1,96c-4.7,0-6.7,6.2-6.7,12.1c0,5.9,2.3,11.9,6.7,11.9c4.7,0,6.7-6.3,6.7-12.1
	C645.8,102.2,643.6,96,639.1,96z"/>
<path class="st0" d="M695.4,123.7h-3.7l-0.6-13.8c-0.1-3-0.2-6.6-0.3-9.9c-0.6,2.6-1.3,5.4-2.1,8.4l-4,15.1H682l-3.7-14.8
	c-0.8-3.2-1.4-6-1.9-8.3c-0.1,3-0.2,6.5-0.3,9.9l-0.6,13.5h-3.6l1.6-31.3h4.4l3.9,15c0.8,3.3,1.4,6,1.9,8.4c0.5-2.4,1.1-5,2-8.4
	l4.1-15h4.4L695.4,123.7z M692.6,122.8h2l-1.3-29.4h-3l-3.9,14.3c-1.1,4.3-1.8,7.4-2.3,10.1l-0.1,0.4h-0.8l-0.1-0.4
	c-0.5-2.8-1.2-6-2.2-10.1L677,93.4h-3l-1.5,29.4h1.9l0.6-12.6c0.2-4.6,0.3-9.7,0.4-13.4v-0.5h0.7l0.2,0.4c0.6,3.2,1.3,6.8,2.6,11.8
	l3.5,14.1h1.6l3.8-14.4c1.2-4.3,2.1-8.1,2.8-11.5l0.1-0.4h0.8v0.5c0,3.8,0.2,8.9,0.3,13.1L692.6,122.8z"/>
</svg>
